HIERARCHY
ROOT root     
{
	OFFSET 0.0000 0.0000 0.0000
	CHANNELS 6 Xposition Yposition Zposition Zrotation Yrotation Xrotation
	JOINT pelvis   
	{
		OFFSET 0.0000 0.0000 0.0000
		CHANNELS 3 Zrotation Yrotation Xrotation
		JOINT thorax   
		{
			OFFSET 0.0000 23.0750 -5.0000
			CHANNELS 3 Zrotation Yrotation Xrotation
			JOINT rclavicle
			{
				OFFSET 0.0000 28.0009 0.0000
				CHANNELS 3 Zrotation Yrotation Xrotation
				JOINT rhumerus 
				{
					OFFSET -18.5725 5.5939 0.0000
					CHANNELS 3 Zrotation Yrotation Xrotation
					JOINT rradius  
					{
						OFFSET -24.8459 0.0000 0.0000
						CHANNELS 3 Zrotation Yrotation Xrotation
						JOINT rhand    
						{
							OFFSET -24.5477 0.0000 0.0000
							CHANNELS 3 Zrotation Yrotation Xrotation
							End Site
							{
								OFFSET -8.1826 0.0000 0.0000
							}
						}
					}
				}
			}
			JOINT lclavicle
			{
				OFFSET 0.0000 28.0009 0.0000
				CHANNELS 3 Zrotation Yrotation Xrotation
				JOINT lhumerus 
				{
					OFFSET 18.5725 5.5939 0.0000
					CHANNELS 3 Zrotation Yrotation Xrotation
					JOINT lradius  
					{
						OFFSET 24.8459 0.0000 0.0000
						CHANNELS 3 Zrotation Yrotation Xrotation
						JOINT lhand    
						{
							OFFSET 24.5477 0.0000 0.0000
							CHANNELS 3 Zrotation Yrotation Xrotation
							End Site
							{
								OFFSET 8.1826 0.0000 0.0000
							}
						}
					}
				}
			}
			JOINT head     
			{
				OFFSET 0.0000 35.2030 0.0000
				CHANNELS 3 Zrotation Yrotation Xrotation
				End Site
				{
					OFFSET 0.0000 11.7343 0.0000
				}
			}
		}
		JOINT rfemur   
		{
			OFFSET -8.2817 0.0000 0.0000
			CHANNELS 3 Zrotation Yrotation Xrotation
			JOINT rtibia   
			{
				OFFSET 0.0000 -43.3627 0.0000
				CHANNELS 3 Zrotation Yrotation Xrotation
				JOINT rfoot    
				{
					OFFSET 0.0000 -38.2947 0.0000
					CHANNELS 3 Zrotation Yrotation Xrotation
					JOINT rtoes    
					{
						OFFSET 0.0000 0.0000 16.6054
						CHANNELS 3 Zrotation Yrotation Xrotation
						End Site
						{
							OFFSET 0.0000 0.0000 5.5351
						}
					}
				}
			}
		}
		JOINT lfemur   
		{
			OFFSET 8.2817 0.0000 0.0000
			CHANNELS 3 Zrotation Yrotation Xrotation
			JOINT ltibia   
			{
				OFFSET 0.0000 -43.3627 0.0000
				CHANNELS 3 Zrotation Yrotation Xrotation
				JOINT lfoot    
				{
					OFFSET 0.0000 -38.2947 0.0000
					CHANNELS 3 Zrotation Yrotation Xrotation
					JOINT ltoes    
					{
						OFFSET 0.0000 0.0000 16.6054
						CHANNELS 3 Zrotation Yrotation Xrotation
						End Site
						{
							OFFSET 0.0000 0.0000 5.5351
						}
					}
				}
			}
		}
	}
}
MOTION
Frames: 21
Frame Time: .0333333
9.0347 88.285 7.7875 -177.982 64.9218 -159.804 0 -0 0 -1.91853 2.59853 -6.74691 19.6707 -5.4908 2.74747e-05 37.677 14.2938 2.32307 -1.3636e-06 74.4613 -1.79445e-06 -6.08323 5.3787 -0.286009 -28.7055 18.3544 1.7849e-05 -32.418 2.22129 -10.5926 0 -71.3873 0 9.58388 1.83513 0.1539 -10.5974 28.4676 -5.87048 4.4125 -19.4975 -13.6379 -0 -0 16.1477 6.39676e-06 -2.57065 12.1646 -0.542108 1.75222e-06 -60.2227 -3.02426 -1.2531 -30.5294 -0 -0 42.4716 7.76716e-06 11.8054 -4.7645 -0.994591 1.7238e-06 -13.4072 
9.7598 88.287 7.5492 -177.865 64.129 -159.723 0 -0 0 -2.26741 2.86218 -6.70674 19.481 -5.52626 -2.94229e-05 36.8135 14.4425 2.34688 -1.49707e-06 75.6769 -1.92732e-06 -6.08346 5.27507 -0.2805 -28.5717 18.405 3.3502e-05 -32.5207 2.6684 -10.7093 0 -71.5529 0 9.58484 1.88972 0.158401 -9.54049 28.2018 -5.53932 4.38969 -19.6234 -12.7297 -0 -0 15.6318 -3.96601e-06 -2.66038 12.4587 -0.574303 3.75161e-06 -60.4395 -3.67527 -1.21392 -30.9243 -0 -0 40.6949 -1.4313e-05 11.555 -4.98559 -1.01791 -2.3725e-06 -13.5633 
10.493 88.267 7.3032 -177.694 63.334 -159.581 0 -0 0 -2.58745 3.12471 -6.70435 19.3117 -5.58722 -2.08791e-05 35.9431 14.5604 2.33104 -8.27777e-07 76.8927 -1.04263e-06 -6.07474 5.16588 -0.274303 -28.4232 18.4494 1.20993e-05 -32.6498 3.13957 -10.7724 -1.10503e-06 -71.7609 7.99318e-07 9.59983 1.92041 0.161304 -8.45709 27.9208 -5.19378 4.3882 -19.7098 -11.8548 -0 -0 15.1936 6.54993e-06 -2.64649 12.7101 -0.582702 -2.10012e-06 -60.8433 -4.37615 -1.07099 -31.2806 -0 -0 38.8379 3.9567e-06 11.2574 -5.17742 -1.02901 -8.43738e-07 -13.6821 
11.236 88.225 7.0516 -177.455 62.5387 -159.366 0 -0 0 -2.86809 3.38035 -6.73996 19.1646 -5.66955 -1.61056e-05 35.0684 14.6557 2.27962 -0 78.1044 -0 -6.0418 5.05796 -0.267098 -28.265 18.474 -0.000126288 -32.8008 3.66367 -10.799 8.13199e-07 -72.0209 -1.11882e-06 9.61498 1.93605 0.162804 -7.35333 27.6298 -4.83914 4.41816 -19.7298 -10.999 -0 -0 14.7983 1.26035e-06 -2.54561 12.9508 -0.570912 -2.06242e-06 -61.4828 -5.12156 -0.811592 -31.6066 -0 -0 36.9301 2.17716e-06 10.9105 -5.34453 -1.02861 6.26976e-06 -13.7549 
11.988 88.162 6.7927 -177.168 61.7383 -159.095 0 -0 0 -3.11807 3.61903 -6.81289 19.0434 -5.77149 1.00143e-05 34.1976 14.732 2.19783 -0 79.3031 -0 -5.97594 4.95663 -0.258899 -28.0967 18.5017 -1.28888e-05 -32.9813 4.20333 -10.7876 -1.13467e-06 -72.3172 8.2919e-07 9.62192 1.94208 0.163502 -6.23203 27.3322 -4.4836 4.47595 -19.6948 -10.1638 -0 -0 14.4434 -6.87784e-06 -2.35122 13.1939 -0.536907 -1.45726e-06 -62.3478 -5.92146 -0.438259 -31.9109 -0 -0 34.9974 1.65075e-06 10.5258 -5.48819 -1.01809 8.10334e-06 -13.7997 
12.751 88.078 6.5248 -176.85 60.9317 -158.791 0 -0 0 -3.34487 3.82989 -6.91896 18.9498 -5.88789 1.30261e-05 33.339 14.792 2.08823 -1.39259e-06 80.4801 -1.17842e-06 -5.87133 4.86545 -0.249699 -27.9184 18.5327 -0.00011315 -33.1915 4.76049 -10.7483 0 -72.6383 0 9.61374 1.94678 0.163699 -5.0952 27.0327 -4.13295 4.55803 -19.6151 -9.34431 -0 -0 14.119 -2.83171e-06 -2.07845 13.4553 -0.483801 -7.25823e-07 -63.4053 -6.78191 0.0416051 -32.1976 -0 -0 33.0649 -2.44259e-06 10.1189 -5.60986 -0.999481 -5.40414e-06 -13.8607 
13.527 87.975 6.2486 -176.5 60.1115 -158.455 0 -0 0 -3.54373 4.00238 -7.05265 18.8823 -6.01269 -1.81328e-05 32.5026 14.8329 1.95137 -0 81.6279 -0 -5.72478 4.78774 -0.239502 -27.7359 18.5566 -5.11182e-05 -33.4278 5.34683 -10.6931 1.22755e-06 -72.9934 -1.65917e-06 9.58817 1.95642 0.1641 -3.94803 26.7348 -3.79195 4.67104 -19.4738 -8.52353 -0 -0 13.7947 6.2098e-06 -1.78427 13.7571 -0.424506 2.62163e-06 -64.556 -7.69791 0.623379 -32.4694 -0 -0 31.1631 -1.21183e-06 9.70205 -5.71561 -0.975504 4.63408e-07 -14.0076 
14.315 87.853 5.9598 -176.155 59.2739 -158.125 0 -0 0 -3.7335 4.12643 -7.20735 18.8404 -6.14366 1.78652e-05 31.7022 14.8566 1.79245 -0 82.7565 -0 -5.5406 4.72522 -0.228807 -27.5474 18.5896 6.74321e-05 -33.695 5.92995 -10.6198 0 -73.354 0 9.54929 1.97325 0.164799 -2.79165 26.437 -3.46442 4.80238 -19.3105 -7.70717 -0 -0 13.4865 5.1348e-06 -1.48086 14.0938 -0.36069 -1.77376e-06 -65.7213 -8.67942 1.28496 -32.7234 -0 -0 29.307 -1.70692e-07 9.30064 -5.80878 -0.949592 -1.37968e-06 -14.3122 
15.116 87.714 5.6558 -175.827 58.4161 -157.814 0 -0 0 -3.92201 4.19543 -7.37518 18.8253 -6.27707 1.1684e-05 30.9501 14.8576 1.61386 -2.56886e-06 83.8537 -2.30707e-06 -5.32438 4.67858 -0.217698 -27.353 18.632 -7.78039e-05 -33.9905 6.50414 -10.5305 9.13144e-07 -73.7161 -1.21807e-06 9.50326 1.99856 0.166099 -1.62909 26.1418 -3.15146 4.94656 -19.1475 -6.89297 -0 -0 13.2004 7.35324e-06 -1.20144 14.4607 -0.300101 -1.8958e-06 -66.8076 -9.72422 2.00814 -32.9508 -0 -0 27.511 7.30768e-06 8.93202 -5.89534 -0.924899 -4.13893e-06 -14.853 
15.932 87.56 5.3357 -175.521 57.5334 -157.536 0 -0 0 -4.10953 4.20773 -7.55002 18.8327 -6.40948 1.21335e-05 30.2584 14.8302 1.41949 -2.30367e-06 84.9279 -2.51732e-06 -5.08437 4.64868 -0.206496 -27.1548 18.6708 0.000111372 -34.3156 7.07822 -10.4319 9.37282e-07 -74.0763 -1.24208e-06 9.45745 2.03072 0.168003 -0.466206 25.8485 -2.85217 5.105 -18.9906 -6.07669 -0 -0 12.9386 -8.92869e-06 -0.988098 14.8484 -0.253197 3.23973e-06 -67.7198 -10.8215 2.7787 -33.1448 -0 -0 25.7878 -7.59154e-06 8.6045 -5.98172 -0.903399 -4.84482e-06 -15.6912 
16.765 87.39 4.9975 -175.238 56.6279 -157.295 0 -0 0 -4.30044 4.16627 -7.72456 18.8594 -6.54075 2.85466e-05 29.6351 14.7732 1.21514 -2.92622e-06 85.9696 -3.13978e-06 -4.83032 4.63572 -0.195596 -26.9529 18.707 -0.0001234 -34.6706 7.64712 -10.3236 0 -74.4304 0 9.42036 2.06515 0.170198 0.692362 25.5544 -2.56466 5.27378 -18.8682 -5.26213 -0 -0 12.723 -4.07787e-06 -0.851802 15.2391 -0.223901 7.37397e-06 -68.4504 -11.9584 3.58165 -33.2908 -0 -0 24.1426 -4.3068e-06 8.3199 -6.07136 -0.886101 -3.79183e-07 -16.8569 
17.613 87.206 4.6386 -174.986 55.7062 -157.099 0 -0 0 -4.50236 4.07898 -7.89516 18.9059 -6.67293 2.86885e-05 29.0876 14.686 1.00817 -0 86.9931 -0 -4.57304 4.63913 -0.185297 -26.7436 18.7453 0.000100972 -35.0628 8.19334 -10.1998 -1.2907e-06 -74.7631 9.86158e-07 9.39867 2.0966 0.172402 1.842 25.2612 -2.28651 5.44441 -18.8136 -4.46437 -0 -0 12.5925 -4.08217e-07 -0.767401 15.5995 -0.206404 -3.63794e-06 -68.9705 -13.1208 4.4004 -33.3798 -0 -0 22.5794 2.82213e-06 8.07371 -6.16465 -0.872705 7.46037e-06 -18.332 
18.48 87.006 4.2603 -174.745 54.7762 -156.934 0 -0 0 -4.70601 3.95745 -8.05782 18.969 -6.80609 2.38387e-05 28.6157 14.5667 0.803748 -8.36341e-06 87.9655 -8.66533e-06 -4.32056 4.6592 -0.175804 -26.5269 18.7703 9.74264e-05 -35.4922 8.74124 -10.0684 0 -75.0838 0 9.39359 2.11923 0.174105 2.97549 24.9674 -2.01497 5.62172 -18.8245 -3.68237 -0 -0 12.5569 -2.91657e-06 -0.727203 15.9258 -0.199499 -1.58492e-07 -69.4027 -14.278 5.22888 -33.4056 -0 -0 21.1138 6.02979e-06 7.84388 -6.26458 -0.8612 8.08455e-06 -20.0403 
19.365 86.79 3.8627 -174.505 53.8484 -156.791 0 -0 0 -4.91267 3.81602 -8.21475 19.0497 -6.94398 -3.12866e-05 28.2155 14.4218 0.60944 -1.62372e-05 88.9191 -1.59353e-05 -4.07969 4.69523 -0.1673 -26.2988 18.7888 -0.000155291 -35.9664 9.2805 -9.92571 1.03448e-06 -75.3864 -1.33881e-06 9.40379 2.12823 0.175105 4.08706 24.6743 -1.74974 5.80088 -18.9127 -2.93628 -0 -0 12.6537 -2.23636e-06 -0.668704 16.1875 -0.186401 -2.43062e-06 -69.7663 -15.4011 6.05047 -33.3669 -0 -0 19.7556 -3.33598e-06 7.6128 -6.36976 -0.849494 8.85311e-06 -21.8394 
20.266 86.559 3.4485 -174.25 52.9327 -156.653 0 -0 0 -5.11639 3.66899 -8.37009 19.1463 -7.08846 4.49999e-06 27.8814 14.2548 0.430963 -0.000222279 90 -0.000222389 -3.8546 4.74656 -0.159801 -26.0582 18.7951 4.65496e-05 -36.4874 9.81879 -9.77591 0 -75.6708 0 9.4229 2.12101 0.174801 5.17082 24.3837 -1.49218 5.98306 -19.0667 -2.24029 -0 -0 12.9086 1.94644e-06 -0.532399 16.3763 -0.150101 -1.19805e-06 -70.1199 -16.4507 6.84431 -33.2713 -0 -0 18.5301 2.36081e-06 7.36329 -6.48015 -0.835591 -1.40145e-07 -23.5459 
21.185 86.31 3.0197 -173.964 52.0451 -156.503 0 -0 0 -5.31566 3.52851 -8.52748 19.2658 -7.24119 -7.4726e-06 27.6021 14.0756 0.272651 -180 89.2369 -180 -3.64629 4.81227 -0.153304 -25.8036 18.7843 -5.226e-05 -37.0594 10.3719 -9.62775 -1.38595e-06 -75.9503 1.08182e-06 9.44054 2.09722 0.173203 6.22169 24.1014 -1.24693 6.16442 -19.2717 -1.6083 -0 -0 13.3352 -5.98116e-07 -0.2427 16.5111 -0.0689995 2.28667e-07 -70.7561 -17.3863 7.57498 -33.1263 -0 -0 17.4604 1.97673e-06 7.09227 -6.59468 -0.81859 -7.19463e-06 -24.9604 
22.116 86.043 2.5795 -173.646 51.1984 -156.33 0 -0 0 -5.51121 3.40365 -8.69466 19.4098 -7.40233 2.21036e-05 27.3631 13.8939 0.137912 -180 88.4201 -180 -3.45237 4.89177 -0.147497 -25.5357 18.7575 0.000163293 -37.6816 10.9386 -9.48694 -9.96973e-07 -76.215 7.81966e-07 9.44465 2.06034 0.170199 7.23516 23.8312 -1.0221 6.34032 -19.505 -1.06088 -0 -0 13.9574 -2.76126e-07 0.278799 16.6006 0.079701 -2.00845e-07 -71.7181 -18.1662 8.1963 -32.9435 -0 -0 16.5705 2.95108e-06 6.81475 -6.71118 -0.800111 -8.88428e-06 -25.8996 
23.058 85.757 2.13 -173.294 50.4033 -156.127 0 -0 0 -5.70956 3.29844 -8.87651 19.5861 -7.57096 -6.5008e-05 27.1513 13.7184 0.0280867 -180 87.5973 -180 -3.26961 4.98417 -0.142299 -25.2561 18.7172 -0.000190515 -38.3508 11.5249 -9.36326 0 -76.4797 0 9.42414 2.01616 0.166203 8.20803 23.5788 -0.828844 6.49905 -19.7511 -0.616592 -0 -0 14.7935 4.63029e-08 1.11001 16.674 0.318496 8.62531e-07 -73.1088 -18.751 8.64916 -32.7358 -0 -0 15.8828 1.29219e-05 6.56567 -6.83027 -0.784199 -3.70257e-06 -26.2026 
24.004 85.451 1.6741 -172.913 49.6721 -155.892 0 -0 0 -5.91651 3.21256 -9.07897 19.8004 -7.74362 -7.48833e-05 26.9547 13.561 -0.0564122 -180 86.8482 -180 -3.09216 5.08917 -0.137402 -24.9675 18.6674 -1.52476e-05 -39.0598 12.1231 -9.26316 0 -76.7359 0 9.37026 1.97351 0.161703 9.13657 23.3559 -0.679883 6.63313 -19.9752 -0.293865 -0 -0 15.8514 2.25328e-06 2.29462 16.7658 0.662207 -5.3858e-07 -74.9283 -19.1118 8.87436 -32.5176 -0 -0 15.4234 -2.13338e-06 6.3895 -6.95935 -0.777391 -7.45051e-06 -25.7382 
24.95 85.127 1.2118 -172.52 49.011 -155.63 0 -0 0 -6.14648 3.1397 -9.30037 20.0569 -7.91532 2.60581e-05 26.7656 13.4297 -0.11641 -180 86.1203 -180 -2.91454 5.20695 -0.132597 -24.6779 18.6117 7.89153e-05 -39.8011 12.7283 -9.19568 3.95584e-07 -76.9818 -9.82485e-07 9.27811 1.94234 0.157604 10.0169 23.1663 -0.590615 6.72116 -20.1745 -0.107297 -0 -0 17.1459 6.11112e-06 3.87145 16.9159 1.12801 -8.15777e-07 -77.1986 -19.2367 8.81872 -32.3021 -0 -0 15.2132 2.00705e-06 6.33712 -7.11445 -0.787991 -6.07931e-06 -24.3821 
25.888 84.784 0.7432 -172.136 48.4249 -155.357 0 -0 0 -6.41018 3.0696 -9.5374 20.3578 -8.07971 -8.47934e-06 26.5778 13.3312 -0.153742 -180 85.4559 -180 -2.73255 5.33831 -0.127403 -24.3968 18.5566 9.33349e-05 -40.5598 13.3256 -9.16477 -1.50665e-06 -77.2073 1.2029e-06 9.14964 1.93235 0.154597 10.8431 23.0201 -0.57526 6.74558 -20.3356 -0.0689588 -0 -0 18.6841 2.43894e-05 5.83213 17.157 1.72584 3.87526e-05 -79.7514 -19.1343 8.45182 -32.1099 -0 -0 15.2755 9.39473e-06 6.44605 -7.32247 -0.825 1.29901e-06 -22.0369 
